# xmcd
#
# Track frame offsets:
#	150
#	15605
#	32080
#	49232
#	66160
#	80737
#	95767
#	113097
#	129010
#	146607
#	169755
#	188350
#	204415
#	219572
#	234977
#
# Disc length: 3377 seconds
#
# Revision: 0
# Processed by: cddbd v1.5.1PL0 Copyright (c) Steve Scherf et al.
# Submitted via: audiograbber 1.82.02
#
DISCID=c80d2f0f
DTITLE=Various Artist - Sound Choice 8380 Country Hits
DYEAR=1900
DGENRE=Karaoke
TTITLE0=Earl Thomas Conley - Holding her and loving you
TTITLE1=Merle Haggard - Twinklie, twinkle lucky star
TTITLE2=Eddie Rabbit - Drivin' my life away
TTITLE3=Lee Greenwood - Dixie road
TTITLE4=Randy Travis - 1982
TTITLE5=Dwight Yoakam - Guitars, Cadillacs
TTITLE6=Keith Whitley - I'm no stranger to the rain
TTITLE7=Alabama - Forty hour week ( for a livin' )
TTITLE8=Ronnie Milsap - Ther's no getting over me
TTITLE9=Restless Heart - The bluest eyes in Texas
TTITLE10=T.G. Sheppard - I loved them everyone
TTITLE11=Ricky Van Shelton - Somebody lied
TTITLE12=George Strait - Am I blue
TTITLE13=T. Graham Brown - I tell it like it used to be
TTITLE14=Exile - I don't want to be a memory
EXTD=
EXTT0=
EXTT1=
EXTT2=
EXTT3=
EXTT4=
EXTT5=
EXTT6=
EXTT7=
EXTT8=
EXTT9=
EXTT10=
EXTT11=
EXTT12=
EXTT13=
EXTT14=
PLAYORDER=
